<?xml version="1.0" encoding="UTF-8"?>
<svg id="Livello_1" xmlns="http://www.w3.org/2000/svg" version="1.1" viewBox="0 0 512 512">
  <!-- Generator: Adobe Illustrator 30.1.0, SVG Export Plug-In . SVG Version: 2.1.1 Build 136)  -->
  <defs>
    <style>
      .st0 {
        fill: #d2ff55;
      }

      .st1 {
        fill: #003dea;
      }
    </style>
  </defs>
  <rect class="st0" y="0" width="512" height="512"/>
  <g>
    <path class="st1" d="M253.38,477.8c-21.05,0-40.81-8.24-55.62-23.2-20.09-20.29-27.5-49.99-19.34-77.51,3.88-13.09.4-27.26-9.11-37.06-7.21-7.43-17.03-11.47-27.11-11.47-3.22,0-6.46.41-9.66,1.26-6.52,1.73-13.31,2.6-20.18,2.6-21.06,0-40.81-8.24-55.63-23.2-14.71-14.86-22.75-34.55-22.65-55.45.1-20.9,8.34-40.52,23.2-55.22,14.75-14.6,34.3-22.65,55.06-22.65s40.81,8.24,55.62,23.2c20.09,20.3,27.5,49.99,19.34,77.51-3.88,13.09-.4,27.26,9.11,37.06,7.21,7.43,17.03,11.47,27.11,11.47,3.22,0,6.46-.41,9.66-1.26,6.53-1.73,13.32-2.6,20.18-2.6,21.05,0,40.81,8.24,55.62,23.2,30.36,30.67,30.11,80.32-.55,110.68-14.75,14.6-34.3,22.65-55.06,22.65Z"/>
    <path class="st1" d="M112.29,332.32c-21.05,0-40.81-8.24-55.62-23.2-14.71-14.86-22.75-34.55-22.65-55.45.1-20.9,8.34-40.52,23.2-55.23,14.75-14.6,34.3-22.65,55.06-22.65,7.68,0,15.22,1.08,22.43,3.22,3.54,1.05,7.15,1.56,10.74,1.56,9.68,0,19.16-3.73,26.31-10.66,9.8-9.5,13.71-23.55,10.23-36.75-1.75-6.63-2.62-13.54-2.58-20.52.1-20.91,8.34-40.52,23.2-55.23,14.75-14.6,34.3-22.65,55.06-22.65s40.81,8.24,55.62,23.2c14.71,14.85,22.75,34.55,22.64,55.45-.1,20.9-8.34,40.52-23.2,55.22-14.75,14.6-34.3,22.65-55.06,22.65-7.69,0-15.26-1.09-22.49-3.24-3.54-1.05-7.17-1.57-10.76-1.57-9.68,0-19.15,3.72-26.3,10.66-9.8,9.51-13.72,23.56-10.23,36.76,7.15,27.11-.72,56.14-20.54,75.76-14.75,14.6-34.3,22.65-55.05,22.65h0Z"/>
    <path class="st1" d="M399.14,336.11c-21.05,0-40.81-8.24-55.62-23.2-14.71-14.86-22.75-34.55-22.65-55.45.04-7.54,1.12-14.95,3.23-22.04,3.88-13.09.4-27.25-9.1-37.05-7.21-7.43-17.04-11.48-27.12-11.48-3.21,0-6.45.41-9.63,1.25-6.51,1.72-13.28,2.59-20.13,2.59-21.05,0-40.81-8.24-55.62-23.2-14.71-14.86-22.75-34.55-22.65-55.45.1-20.9,8.34-40.52,23.2-55.22,14.75-14.6,34.3-22.65,55.06-22.65s40.81,8.24,55.62,23.2c20.09,20.29,27.5,49.99,19.34,77.51-3.88,13.09-.4,27.26,9.11,37.06,7.21,7.43,17.03,11.47,27.11,11.47,3.22,0,6.46-.41,9.66-1.26,6.52-1.73,13.32-2.6,20.18-2.6,21.06,0,40.81,8.24,55.62,23.2,14.67,14.82,22.7,34.51,22.59,55.45-.11,20.94-8.32,40.55-23.15,55.22-14.75,14.6-34.3,22.65-55.05,22.65h0Z"/>
    <path class="st1" d="M254.33,477.57c-21.05,0-40.81-8.24-55.62-23.2-14.71-14.86-22.75-34.55-22.64-55.45s8.34-40.52,23.2-55.22c14.75-14.6,34.3-22.65,55.06-22.65,7.7,0,15.26,1.09,22.48,3.24,3.54,1.05,7.17,1.57,10.76,1.57,9.68,0,19.15-3.72,26.3-10.65,9.8-9.5,13.72-23.56,10.23-36.77-7.15-27.11.72-56.14,20.54-75.76,14.75-14.6,34.3-22.65,55.06-22.65s40.81,8.24,55.62,23.2c14.71,14.86,22.75,34.55,22.65,55.45-.1,20.91-8.34,40.52-23.2,55.22-14.75,14.6-34.3,22.65-55.05,22.65-7.68,0-15.23-1.08-22.44-3.22-3.54-1.05-7.15-1.56-10.74-1.56-9.68,0-19.16,3.73-26.31,10.66-9.8,9.5-13.71,23.55-10.23,36.75,1.75,6.63,2.62,13.54,2.58,20.52-.1,20.91-8.34,40.52-23.2,55.23-14.75,14.6-34.3,22.65-55.06,22.65Z"/>
  </g>
</svg>